<?xml version="1.0" encoding="UTF-8" standalone="no"?>
<svg
   xmlns:dc="http://purl.org/dc/elements/1.1/"
   xmlns:cc="http://creativecommons.org/ns#"
   xmlns:rdf="http://www.w3.org/1999/02/22-rdf-syntax-ns#"
   xmlns:svg="http://www.w3.org/2000/svg"
   xmlns="http://www.w3.org/2000/svg"
   version="1.1"
   id="svg22105"
   viewBox="0 0 1318 304.1171"
   height="85.828606mm"
   width="371.9689mm">
  <defs
     id="defs22107" />
  <metadata
     id="metadata22110">
    <rdf:RDF>
      <cc:Work
         rdf:about="">
        <dc:format>image/svg+xml</dc:format>
        <dc:type
           rdf:resource="http://purl.org/dc/dcmitype/StillImage" />
        <dc:title></dc:title>
      </cc:Work>
    </rdf:RDF>
  </metadata>
  <g
     transform="translate(-118.14286,-378.87508)"
     id="layer1">
    <g
       id="g22161">
      <path
         style="fill:#231f20;fill-opacity:1"
         d="m 122.14286,520.56368 0,-34.3097 7.99961,-7.6098 c 14.43275,-13.7296 39.47295,-18.5447 108.00039,-20.7681 73.74366,-2.3926 122.8757,-5.0829 130.85418,-7.1651 10.49094,-2.7379 13.14582,-6.4082 13.14582,-18.1738 0,-16.6925 0.61038,-16.5587 -78.90763,-17.2901 -37.45081,-0.3445 -72.06369,-0.042 -76.91753,0.6713 -11.81532,1.7373 -20.17484,9.942 -20.17484,19.8011 l 0,7.1539 -42.20523,0 -42.20524,0 0.70524,-16.5 c 0.77509,-18.1346 3.29823,-23.3635 15.23161,-31.5659 18.57815,-12.7696 50.27136,-15.9303 159.76171,-15.9324 89.33165,0 118.10373,1.7296 137.53875,8.2768 24.71574,8.3262 31.17942,17.6896 31.162,45.1418 -0.014,22.224 -2.4452,30.9027 -11.07346,39.531 -14.49998,14.4999 -38.75074,17.9596 -153.91538,21.9579 -48.06793,1.6688 -80.30107,3.6023 -83.99634,5.0386 -8.90354,3.4606 -13.00366,7.989 -13.00366,14.3622 l 0,5.69 134,0 134,0 0,18 0,18 -175,0 -175,0 0,-34.3097 z"
         id="path22067" />
      <path
         style="fill:#231f20;fill-opacity:1"
         d="m 662.14285,487.87338 c 0,-36.85 -0.76168,-67 -1.69264,-67 -0.93095,0 -25.68551,9 -55.01012,20 -29.32462,11 -54.28802,20 -55.47422,20 -2.39281,0 -37.8355,-29.7703 -37.80177,-31.7519 0.0117,-0.6864 27.73086,-11.8231 61.59816,-24.7481 l 61.5769,-23.5 54.40185,0 54.40184,0 0,87 0,87 -41,0 -41,0 0,-67 z"
         id="path22069" />
      <path
         style="fill:#231f20;fill-opacity:1"
         d="m 814.14285,524.80908 c 0,-33.5241 1.53602,-39.8239 11.81961,-48.477 8.13607,-6.8461 27.70529,-12.8783 49.80953,-15.3537 9.55397,-1.07 47.07086,-2.9321 83.37086,-4.138 110.60605,-3.6744 115.41325,-4.5885 116.58795,-22.1683 0.7365,-11.0217 -2.4282,-15.493 -12.6415,-17.8609 -11.2579,-2.6101 -138.0739,-2.4355 -147.57631,0.2032 -10.86023,3.0157 -15.37014,8.2559 -15.37014,17.859 l 0,8 -43,0 -43,0 0.0112,-10.5 c 0.0312,-29.3637 11.71073,-40.9 49.65952,-49.0504 13.14141,-2.8224 30.88662,-3.3035 124.32932,-3.371 114.76681,-0.083 126.31341,0.6432 146.18231,9.1905 11.0261,4.7433 20.4099,14.119 23.5495,23.5293 3.174,9.5134 2.8257,31.5983 -0.6847,43.4194 -3.1325,10.548 -9.806,18.1844 -20.6962,23.6823 -15.4848,7.8175 -47.5452,10.6972 -167.35091,15.0317 -28.6,1.0347 -55.44689,2.8855 -59.65976,4.1129 -5.85151,1.7047 -8.33026,3.8363 -10.5,9.0292 -1.56213,3.7387 -2.84024,7.7265 -2.84024,8.8618 0,1.3985 43.22003,2.0643 133.99991,2.0643 l 134.0001,0 0,18 0,18 -175.00001,0 -175,0 0,-30.0643 z"
         id="path22071" />
      <path
         style="fill:#231f20;fill-opacity:1"
         d="m 1354.1429,487.87338 c 0,-36.85 -0.4454,-67 -0.9898,-67 -0.5445,0 -25.0521,9.026 -54.4615,20.0578 -29.4093,11.0318 -54.5741,19.8068 -55.9217,19.5 -4.1405,-0.9426 -38.4811,-30.4755 -37.0092,-31.8278 0.7602,-0.6986 28.707,-11.7236 62.1038,-24.5 l 60.7216,-23.23 53.7784,0 53.7784,0 0,87 0,87 -41,0 -41,0 0,-67 z"
         id="path22073" />
      <path
         style="fill:#231f20;fill-opacity:1"
         d="m 118.14286,637.76978 0,-45.1035 81.5,0.6035 c 77.99213,0.5776 81.88737,0.7848 90.5,4.8132 13.81493,6.4618 16.77862,10.9264 17.5494,26.4373 0.83934,16.8904 -3.46461,24.6889 -17.10275,30.9891 -8.90548,4.114 -12.79797,4.4017 -67.94665,5.0224 l -58.5,0.6585 0,10.8415 0,10.8416 -23,0 -23,0 0,-45.1036 z m 138.96304,-2.1452 c 2.09609,-2.0961 3.03378,-5.8052 2.64286,-10.454 -0.97408,-11.5835 -4.40926,-12.3534 -52.6059,-11.789 l -42,0.4918 -0.59544,12.5 -0.59543,12.5 44.95258,0 c 38.82096,0 45.39571,-0.4432 48.20133,-3.2488 z"
         id="path22075" />
      <path
         style="fill:#231f20;fill-opacity:1"
         d="m 332.14286,637.87338 0,-45 23,0 23,0 0,35 0,35 55,0 55,0 0,10 0,10 -78,0 -78,0 0,-45 z"
         id="path22077" />
      <path
         style="fill:#231f20;fill-opacity:1"
         d="m 536.34204,658.37338 c 12.42772,-13.475 31.10526,-33.725 41.50564,-45 l 18.90979,-20.5 31.5737,0 31.5737,0 41.86595,44.5 41.86593,44.5 -24.6985,0.5594 -24.69849,0.5594 -7.28118,-8.0594 -7.28118,-8.0594 -50.53454,0 -50.53455,0 -7.22752,8 -7.22752,8 -25.20354,0 -25.20355,0 22.59586,-24.5 z m 125.75934,-9 c -0.0486,-1.7569 -31.70325,-37.3457 -33.64343,-37.8247 -1.6865,-0.4164 -29.91695,31.96 -31.52794,36.1582 -1.07844,2.8103 2.52076,3.1665 31.99887,3.1665 18.26768,0 33.19531,-0.675 33.1725,-1.5 z"
         id="path22079" />
      <path
         style="fill:#231f20;fill-opacity:1"
         d="m 768.14285,637.87338 0,-45 37.5,0.049 37.5,0.048 45.58017,33.9515 c 25.06909,18.6733 46.44409,33.9515 47.5,33.9515 1.15116,0 1.91983,-13.6131 1.91983,-34 l 0,-34 23,0 23,0 0,45 0,45 -38.00579,0 -38.0058,0 -45.8724,-34 c -25.22981,-18.7 -46.37721,-34 -46.9942,-34 -0.61699,0 -1.12181,15.3 -1.12181,34 l 0,34 -23,0 -23,0 0,-45 z"
         id="path22081" />
      <path
         style="fill:#231f20;fill-opacity:1"
         d="m 1018.1428,637.87338 0,-45 86,0 86.0001,0 0,9 0,9 -63,0 -63.0001,0 0,9 0,9 60.0001,0 60,0 0,9 0,9 -60,0 -60.0001,0 0,9 0,9 65.0001,0 65,0 0,9 0,9 -88.0001,0 -88,0 0,-45 z"
         id="path22083" />
      <path
         style="fill:#231f20;fill-opacity:1"
         d="m 1220.1429,637.87338 0,-45 37.9239,0 37.9238,0 45.8046,34 c 25.1925,18.7 46.3768,34 47.0762,34 0.6993,0 1.2715,-15.3 1.2715,-34 l 0,-34 23,0 23,0 0,45 0,45 -37.5566,0 -37.5567,0 -45.9433,-34.0883 -45.9434,-34.0882 -0.5472,34.0882 -0.5472,34.0883 -23.9528,0 -23.9528,0 0,-45 z"
         id="path22085" />
    </g>
  </g>
</svg>
